<svg viewBox="0 0 16 16" fill="none" xmlns="http://www.w3.org/2000/svg">
<path fill-rule="evenodd" clip-rule="evenodd" d="M11.9481 11.1785L13.8403 13.0707C14.0532 13.2836 14.0532 13.6276 13.8404 13.8405C13.7342 13.9466 13.5949 14 13.4555 14C13.3161 14 13.1768 13.9466 13.0706 13.8405L11.1783 11.9482L11.9481 11.1785ZM11.2332 10.3666C11.9271 9.48612 12.3432 8.37724 12.3432 7.17166C12.3432 4.32018 10.023 2 7.17158 2C4.32012 2 2 4.32015 2 7.17164C2 10.0231 4.32015 12.3433 7.1716 12.3433C8.31075 12.3433 9.36358 11.9718 10.219 11.3455L10.2182 11.3447C10.2182 11.3447 10.6167 11.019 10.8363 10.7993C11.0392 10.5965 11.2085 10.3962 11.2332 10.3666ZM3.08877 7.17164C3.08877 9.42322 4.92005 11.2545 7.1716 11.2545C9.42313 11.2545 11.2544 9.42322 11.2544 7.17164C11.2544 4.92005 9.42316 3.08875 7.1716 3.08875C4.92005 3.08875 3.08877 4.92005 3.08877 7.17164Z" fill="currentColor"/>
</svg>
