<svg viewBox="0 0 20 20" fill="none" xmlns="http://www.w3.org/2000/svg">
<path d="M16 4.08984V15.5C16 16.8807 14.8807 18 13.5 18C12.1193 18 11 16.8807 11 15.5C11 14.1193 12.1193 13 13.5 13C14.0434 13.0043 14.5705 13.1866 15 13.5195V8.34961L8 6.59961V13.5C8 14.8807 6.88071 16 5.5 16C4.11929 16 3 14.8807 3 13.5C3 12.1193 4.11929 11 5.5 11C6.04338 11.0043 6.57053 11.1866 7 11.5195V2.41992L7.55957 2L16 4.08984ZM13.5 14C12.6716 14 12 14.6716 12 15.5C12 16.3284 12.6716 17 13.5 17C14.3284 17 15 16.3284 15 15.5C15 14.6716 14.3284 14 13.5 14ZM5.5 12C4.67157 12 4 12.6716 4 13.5C4 14.3284 4.67157 15 5.5 15C6.32843 15 7 14.3284 7 13.5C7 12.6716 6.32843 12 5.5 12ZM8 5.57031L15 7.32031V4.87012L8 3.12012V5.57031Z" fill="currentColor"/>
</svg>
